<mxfile host="app.diagrams.net" modified="2024-02-27T22:33:12.159Z" agent="Mozilla/5.0 (Windows NT 10.0; Win64; x64; rv:123.0) Gecko/20100101 Firefox/123.0" version="23.1.7" etag="2tTkpbijwTqvD98lKhs6" type="github">
  <diagram name="PÃ¡gina-1" id="SNli8gqKQ5veP4E1z79-">
    <mxGraphModel>
      <root>
        <mxCell id="0" />
        <mxCell id="1" parent="0" />
      </root>
    </mxGraphModel>
  </diagram>
</mxfile>
